<svg xmlns="http://www.w3.org/2000/svg" version="1.1" xmlns:xlink="http://www.w3.org/1999/xlink" xmlns:svgjs="http://svgjs.com/svgjs" width="40" height="40"><svg width="40" height="40" viewBox="0 0 40 40" fill="none" xmlns="http://www.w3.org/2000/svg">
<path d="M9.33884 14.7237L4.07227 19.9902L9.33884 25.2568L14.6054 19.9902L9.33884 14.7237Z" fill="#9D7247"></path>
<path d="M19.9951 4.08548L14.7285 9.35205L19.9951 14.6186L25.2617 9.35205L19.9951 4.08548Z" fill="#9D7247"></path>
<path d="M19.9912 25.3936L14.7246 30.6602L19.9912 35.9267L25.2578 30.6602L19.9912 25.3936Z" fill="#9D7247"></path>
<path d="M30.6474 14.7266L25.3809 19.9932L30.6474 25.2597L35.914 19.9932L30.6474 14.7266Z" fill="#9D7247"></path>
<path d="M28.6103 12.6866L23.3438 17.9531L25.3829 19.9923L30.6495 14.7257L28.6103 12.6866Z" fill="#9D7247"></path>
<path d="M17.9541 23.3535L12.6875 28.6201L14.7266 30.6593L19.9932 25.3927L17.9541 23.3535Z" fill="#9D7247"></path>
<path d="M25.2588 9.35305L19.9922 14.6196L22.0313 16.6588L27.2979 11.3922L25.2588 9.35305Z" fill="#9D7247"></path>
<path d="M14.6181 20.0054L9.35156 25.272L11.3907 27.3111L16.6573 22.0445L14.6181 20.0054Z" fill="#9D7247"></path>
<path d="M11.379 12.6864L9.33984 14.7256L14.6064 19.9922L16.6456 17.953L11.379 12.6864Z" fill="#9D7247"></path>
<path d="M14.7266 9.34953L12.6875 11.3887L17.9541 16.6552L19.9932 14.6161L14.7266 9.34953Z" fill="#9D7247"></path>
<path d="M25.379 19.9901L23.3398 22.0293L28.6064 27.2959L30.6456 25.2567L25.379 19.9901Z" fill="#9D7247"></path>
<path d="M22.047 23.3417L20.0078 25.3809L25.2744 30.6474L27.3135 28.6083L22.047 23.3417Z" fill="#9D7247"></path>
<path d="M27.3031 32.6973L25.2699 30.6641L20.0002 35.9338L14.7305 30.6641L12.6973 32.6973L20.0002 40.0002L27.3031 32.6973Z" fill="#9D7247"></path>
<path d="M9.3361 14.7305L7.3029 12.6973L0 20.0002L7.3029 27.3031L9.3361 25.2699L4.06639 20.0002L9.3361 14.7305Z" fill="#9D7247"></path>
<path d="M32.6973 12.6973L30.6641 14.7305L35.9338 20.0002L30.6641 25.2699L32.6973 27.3031L40.0002 20.0002L32.6973 12.6973Z" fill="#9D7247"></path>
<path d="M25.2699 9.3361L27.3031 7.3029L20.0002 0L12.6973 7.3029L14.7305 9.3361L20.0002 4.06639L25.2699 9.3361Z" fill="#9D7247"></path>
</svg><style>@media (prefers-color-scheme: light) { :root { filter: none; } }
@media (prefers-color-scheme: dark) { :root { filter: invert(100%); } }
</style></svg>