<svg width="24" height="18" fill="none" xmlns="http://www.w3.org/2000/svg"><path d="M21.273 11.454v1.637h-1.637v-1.636h1.637zM19.09 6h-1.637v-.545a3.273 3.273 0 1 1 6.546 0 3.19 3.19 0 0 1-1.407 2.629l-.328.207c-.621.436-.992 1.102-.992 1.854v.219h-1.637v-.219c0-1.298.655-2.509 1.735-3.218l.316-.207a1.51 1.51 0 0 0 .677-1.265 1.637 1.637 0 0 0-3.273 0V6zM8.727 9.818c2.913 0 8.727 1.462 8.727 4.364v3.272H0v-3.272c0-2.902 5.815-4.364 8.727-4.364zm0-9.818a4.363 4.363 0 1 1 0 8.727 4.363 4.363 0 0 1 0-8.727zm0 11.89c-3.24 0-6.654 1.594-6.654 2.292v1.2h13.309v-1.2c0-.698-3.415-2.291-6.655-2.291zm0-9.817a2.29 2.29 0 1 0 0 4.581 2.29 2.29 0 0 0 0-4.581z" fill="#898989"/></svg>