<svg width="36" height="40" fill="none" xmlns="http://www.w3.org/2000/svg"><path d="M30.904 2.344c-.854 0-1.654.23-2.344.63V1.172C28.56.525 28.035 0 27.388 0H8.638c-.647 0-1.172.525-1.172 1.172v1.817a4.657 4.657 0 0 0-2.368-.645A4.693 4.693 0 0 0 .41 7.03a9.79 9.79 0 0 0 1.69 5.51c1.881 2.778 4.201 3.5 6.121 4.267a10.603 10.603 0 0 0 6.139 5.977l-.864 5.496h-.17a3.52 3.52 0 0 0-3.516 3.516v5.86H8.638a1.172 1.172 0 0 0 0 2.343h18.75a1.172 1.172 0 0 0 0-2.344h-1.172v-5.86a3.52 3.52 0 0 0-3.515-3.515h-.17l-.864-5.496a10.604 10.604 0 0 0 6.143-5.988c1.814-.726 4.191-1.45 6.092-4.257a9.79 9.79 0 0 0 1.69-5.509 4.693 4.693 0 0 0-4.688-4.687zM7.457 13.979A7.447 7.447 0 0 1 2.754 7.03a2.346 2.346 0 0 1 2.344-2.343A2.346 2.346 0 0 1 7.44 7.03c0 .083.01.163.025.24v5.62c0 .376.02.748.06 1.115l-.069-.027zm16.415 23.677H12.154v-2.343h11.718v2.343zm-1.171-7.031c.646 0 1.171.526 1.171 1.172v1.172H12.154v-1.172c0-.646.526-1.172 1.172-1.172H22.7zm-6.833-2.344l.775-4.932a10.603 10.603 0 0 0 2.74 0l.775 4.932h-4.29zm10.348-15.39c0 4.523-3.68 8.203-8.203 8.203S9.81 17.414 9.81 12.89V7.03h16.406v5.86zm0-8.204H9.81V2.345h16.406v2.344zm2.328 9.292l-.042.016c.038-.363.058-.731.058-1.104V7.03a2.347 2.347 0 0 1 2.344-2.343 2.346 2.346 0 0 1 2.344 2.343 7.447 7.447 0 0 1-4.704 6.948z" fill="#333"/></svg>