<svg width="99" height="20" fill="none" xmlns="http://www.w3.org/2000/svg"><path d="M25.674 2.485l-6.729 17.152h4.644l.985-2.696h7.099l.984 2.696h4.644L30.554 2.485h-4.88zm.249 10.775l1.756-4.958c.213-.554.359-1.15.45-1.74.091.59.231 1.186.45 1.74l1.756 4.958h-4.412zM90.242 10.711l-5.288-8.226h-6.011l5.525 8.226-5.884 8.926h5.276l3.483-5.75 3.476 5.75h5.312l-5.89-8.926zM63.138 2.485h-6.777v17.17h4.523v-5.39h2.242c4.23-.019 7.464-1.364 7.464-5.89-.006-4.527-3.221-5.89-7.452-5.89zm.219 7.849h-2.48v-3.93h2.474c1.38 0 2.601.413 2.601 1.959 0 1.539-1.215 1.97-2.595 1.97z" fill="#181D27"/><path d="M90.418 2.378h5.24v5.245h-5.24V2.378z" fill="#F80"/><path d="M13.476 15.992a4.972 4.972 0 0 1-1.167.128c-1.957 0-5.076-.81-5.076-5.044 0-3.523 2.62-4.959 5.38-4.959 1.72 0 3.446.487 4.734 1.363V3.19a13.806 13.806 0 0 0-5.306-1.076c-4.79-.006-9.451 2.543-9.451 8.938 0 6.23 4.625 8.944 9.506 8.944a15.072 15.072 0 0 0 5.683-1.15v-8.64h-4.303v5.786zM49.92 13.406c1.884-.754 3.282-2.3 3.282-5.153 0-4.527-3.55-5.78-7.032-5.78h-7.227v17.152h4.54v-5.568h1.958l4.09 5.586h5.112l-4.723-6.237zm-3.55-3.036h-2.886V6.403h2.868c1.295 0 2.17.664 2.17 1.996 0 1.326-.857 1.971-2.151 1.971zM72.701 19.637h4.54V2.485h-4.54v17.152z" fill="#181D27"/></svg>