<svg width="177" height="40" fill="none" xmlns="http://www.w3.org/2000/svg"><path d="M9.339 14.724L4.072 19.99l5.267 5.267 5.266-5.267-5.266-5.266zM19.995 4.085l-5.267 5.267 5.267 5.267 5.267-5.267-5.267-5.267zM19.991 25.394l-5.266 5.266 5.266 5.267 5.267-5.267-5.267-5.266zM30.647 14.727l-5.266 5.266 5.266 5.267 5.267-5.267-5.267-5.266z" fill="#9D7247"/><path d="M28.61 12.687l-5.266 5.266 2.039 2.04 5.267-5.267-2.04-2.04zM17.954 23.354l-5.267 5.266 2.04 2.04 5.266-5.267-2.039-2.04zM25.259 9.353l-5.267 5.267 2.04 2.039 5.266-5.267-2.04-2.039zM14.618 20.005l-5.266 5.267 2.039 2.04 5.266-5.268-2.039-2.039zM11.379 12.686l-2.04 2.04 5.267 5.266 2.04-2.039-5.267-5.267zM14.727 9.35l-2.04 2.039 5.267 5.266 2.04-2.039-5.267-5.266zM25.379 19.99l-2.04 2.04 5.267 5.266 2.04-2.04-5.267-5.266zM22.047 23.342l-2.04 2.039 5.267 5.266 2.04-2.039-5.267-5.266zM27.303 32.697l-2.033-2.033-5.27 5.27-5.27-5.27-2.033 2.033L20 40l7.303-7.303zM9.336 14.73l-2.033-2.033L0 20l7.303 7.303 2.033-2.033L4.066 20l5.27-5.27zM32.697 12.697l-2.033 2.034 5.27 5.27-5.27 5.269 2.033 2.033L40 20l-7.303-7.303zM25.27 9.336l2.033-2.033L20 0l-7.303 7.303 2.034 2.033L20 4.066l5.269 5.27zM45.328 38.68v-1.856h.576c.683 0 1.333-.181 1.952-.544.619-.363 1.12-.96 1.504-1.792.384-.832.576-1.962.576-3.392V11.8c0-.853-.16-1.386-.48-1.6-.32-.234-.704-.352-1.152-.352H46.96V8.152H58v1.696h-1.344c-.47 0-.864.118-1.184.352-.32.235-.48.81-.48 1.728v19.136c0 1.45-.234 2.667-.704 3.648-.47.981-1.11 1.76-1.92 2.336a7.75 7.75 0 0 1-2.72 1.248c-1.024.256-2.08.384-3.168.384h-1.152zM68.51 31.32c-2.709 0-4.767-.768-6.175-2.304-1.408-1.557-2.112-3.722-2.112-6.496 0-3.008.693-5.27 2.08-6.784 1.387-1.536 3.338-2.304 5.856-2.304 2.325 0 4.15.65 5.472 1.952 1.344 1.302 2.016 3.221 2.016 5.76v1.632H65.15c.064 2.134.459 3.69 1.184 4.672.747.982 1.781 1.472 3.104 1.472 1.11 0 2.048-.245 2.816-.736.768-.512 1.333-1.13 1.696-1.856.576.32.864.843.864 1.568 0 .918-.512 1.717-1.536 2.4-1.024.683-2.614 1.024-4.768 1.024zm2.24-10.592c0-1.643-.191-2.923-.575-3.84-.384-.917-1.035-1.376-1.952-1.376-.896 0-1.61.448-2.144 1.344-.533.875-.822 2.165-.864 3.872h5.536zM79.272 17.24c-.235-.682-.523-1.13-.864-1.344-.32-.235-.79-.352-1.408-.352h-.096v-1.696h9.376v1.696h-.416c-.64 0-1.12.096-1.44.288-.32.17-.48.523-.48 1.056 0 .17.022.384.064.64.064.256.128.502.192.736l1.184 4.16c.213.768.406 1.558.576 2.368.17.81.299 1.483.384 2.016h.096c.107-.533.235-1.077.384-1.632.15-.576.363-1.258.64-2.048l3.264-9.12h2.08l3.136 9.44c.256.768.438 1.419.544 1.952.128.534.224 1.003.288 1.408h.096c.107-.533.213-1.035.32-1.504.128-.49.31-1.13.544-1.92l1.408-4.672c.085-.277.15-.565.192-.864.064-.32.096-.565.096-.736 0-1.045-.704-1.568-2.112-1.568h-.224v-1.696h7.328v1.696h-.416c-.619 0-1.088.16-1.408.48-.32.299-.651.97-.992 2.016L97.48 31h-3.456l-3.488-10.624L86.856 31h-3.488l-4.096-13.76zM114.198 31.32c-2.709 0-4.768-.768-6.176-2.304-1.408-1.557-2.112-3.722-2.112-6.496 0-3.008.694-5.27 2.08-6.784 1.387-1.536 3.339-2.304 5.856-2.304 2.326 0 4.15.65 5.472 1.952 1.344 1.302 2.016 3.221 2.016 5.76v1.632h-10.496c.064 2.134.459 3.69 1.184 4.672.747.982 1.782 1.472 3.104 1.472 1.11 0 2.048-.245 2.816-.736.768-.512 1.334-1.13 1.696-1.856.576.32.864.843.864 1.568 0 .918-.512 1.717-1.536 2.4-1.024.683-2.613 1.024-4.768 1.024zm2.24-10.592c0-1.643-.192-2.923-.576-3.84-.384-.917-1.034-1.376-1.952-1.376-.896 0-1.61.448-2.144 1.344-.533.875-.821 2.165-.864 3.872h5.536zM123.328 31v-1.696h.096c.725 0 1.312-.128 1.76-.384.469-.277.704-.917.704-1.92v-9.28c0-.938-.214-1.536-.64-1.792-.406-.256-.96-.384-1.664-.384h-.096v-1.696h6.464l.64 2.496h.16c.426-.96.96-1.675 1.6-2.144.64-.49 1.61-.736 2.912-.736 2.453 0 3.68.864 3.68 2.592 0 .982-.363 1.75-1.088 2.304-.704.534-1.696.8-2.976.8 0-.875-.107-1.536-.32-1.984-.214-.448-.63-.672-1.248-.672-.555 0-1.003.192-1.344.576-.342.384-.598.864-.768 1.44a9.186 9.186 0 0 0-.352 1.696 13.285 13.285 0 0 0-.096 1.408v5.536c0 .939.213 1.536.64 1.792.426.235.96.352 1.6.352h1.024V31h-10.688zM139.982 31v-1.696h.384c.32 0 .65-.042.992-.128.362-.106.661-.31.896-.608.256-.299.384-.747.384-1.344V10.328c0-.576-.128-1.002-.384-1.28a1.8 1.8 0 0 0-.928-.544 3.977 3.977 0 0 0-.96-.128h-.384V6.68h7.52v20.544c0 .598.117 1.046.352 1.344.256.299.565.502.928.608.362.086.693.128.992.128h.384V31h-10.176zM151.552 36.824c1.493 0 2.688-.234 3.584-.704a5.437 5.437 0 0 0 2.176-1.984c.533-.853.97-1.845 1.312-2.976l-5.76-14.08c-.235-.554-.523-.906-.864-1.056a2.935 2.935 0 0 0-1.184-.288h-.128v-1.888h9.12v1.696h-.096c-.598 0-1.067.085-1.408.256-.342.17-.512.48-.512.928 0 .17.032.384.096.64.085.235.16.438.224.608l2.208 5.856c.298.81.512 1.472.64 1.984s.213.982.256 1.408c.042-.448.149-.95.32-1.504.192-.554.32-.906.384-1.056l2.112-6.272c.085-.213.16-.48.224-.8a4.13 4.13 0 0 0 .096-.768c0-.47-.192-.79-.576-.96-.384-.192-.928-.299-1.632-.32h-.128v-1.696h7.2v1.696h-.128c-.598.021-1.078.203-1.44.544-.342.32-.672.918-.992 1.792L161.824 31c-.555 1.557-1.088 2.827-1.6 3.808-.491 1.003-1.067 1.782-1.728 2.336-.662.576-1.504.97-2.528 1.184-1.003.235-2.294.352-3.872.352h-.544v-1.856zM171.048 31.256c-.725 0-1.344-.181-1.856-.544-.512-.384-.768-1.056-.768-2.016 0-.981.256-1.653.768-2.016s1.131-.544 1.856-.544c.704 0 1.312.181 1.824.544.533.363.8 1.035.8 2.016 0 .96-.267 1.632-.8 2.016-.512.363-1.12.544-1.824.544z" fill="#9D7247"/></svg>