<svg width="16" height="16" fill="none" xmlns="http://www.w3.org/2000/svg"><path d="M11.431 11.067l-.515.773c-.103.155-.24.286-.418.334-.588.155-2.147.225-4.522-2.15-2.374-2.374-2.304-3.933-2.149-4.52.047-.18.18-.316.333-.42l.774-.515a1.253 1.253 0 0 0 .347-1.737L3.821.642A1.253 1.253 0 0 0 2.285.184l-.659.282c-.5.215-.909.6-1.152 1.087-.204.406-.361.835-.383 1.29-.067 1.431.247 4.96 4.177 8.889 3.93 3.93 7.457 4.244 8.89 4.176.454-.021.882-.179 1.29-.382a2.302 2.302 0 0 0 1.085-1.152l.283-.66c.238-.554.046-1.2-.457-1.535l-2.19-1.46a1.253 1.253 0 0 0-1.738.347z" fill="#898989"/></svg>